<?xml version="1.0" encoding="utf-8"?>
<!-- Generator: Adobe Illustrator 28.0.0, SVG Export Plug-In . SVG Version: 6.00 Build 0)  -->
<svg version="1.1" id="Capa_1" xmlns="http://www.w3.org/2000/svg" xmlns:xlink="http://www.w3.org/1999/xlink" x="0px" y="0px"
	 viewBox="0 0 1920 1080" style="enable-background:new 0 0 1920 1080;" xml:space="preserve">
<style type="text/css">
	.st0{fill:none;stroke:#000000;stroke-width:4;stroke-miterlimit:10;}
	.st1{stroke:#000000;stroke-miterlimit:10;}
	.st2{fill:#FFFFFF;stroke:#000000;stroke-miterlimit:10;}
	.st3{fill:#FFFFFF;}
	.st4{font-family:'Sentex-Regular';}
	.st5{font-size:41.9867px;}
	.st6{font-family:'LostgunPlusRegular';}
	.st7{font-size:219.6039px;}
	.st8{font-size:197.0972px;}
	.st9{font-size:94.7656px;}
</style>
<g>
	<line class="st0" x1="915.95" y1="151.54" x2="915.95" y2="692.77"/>
</g>
<g>
	<g>
	</g>
</g>
<g>
	<path class="st1" d="M1097.59,582.25h-39.5l-10.43-21.74h-63.09l-9.93,21.74h-40.02c-7.12,0-12.89,5.79-12.89,12.94v77.15
		c0,7.15,5.77,12.94,12.89,12.94h162.97c7.12,0,12.89-5.79,12.89-12.94V595.2C1110.49,588.05,1104.71,582.25,1097.59,582.25z"/>
	<ellipse class="st2" cx="1078.68" cy="593.49" rx="5.4" ry="4.95"/>
	<g>
		<ellipse class="st3" cx="1016.11" cy="628.44" rx="36.91" ry="32.57"/>
		<path class="st3" d="M1016.11,662.94c-21.52,0-39.02-15.48-39.02-34.5c0-19.02,17.5-34.5,39.02-34.5
			c21.52,0,39.02,15.48,39.02,34.5C1055.13,647.46,1037.62,662.94,1016.11,662.94z M1016.11,597.8c-19.19,0-34.8,13.74-34.8,30.64
			c0,16.89,15.61,30.64,34.8,30.64c19.19,0,34.8-13.74,34.8-30.64C1050.91,611.54,1035.3,597.8,1016.11,597.8z"/>
	</g>
	<rect x="943.63" y="573.43" class="st1" width="12.6" height="6.6"/>
	<text transform="matrix(0.7418 0 0 1 989.3962 643.9971)" class="st4 st5">AP</text>
</g>
<g>
	<path class="st1" d="M895.99,200.42h-39.5l-10.43-21.74h-63.09l-9.93,21.74h-40.02c-7.12,0-12.89,5.79-12.89,12.94v77.15
		c0,7.15,5.77,12.94,12.89,12.94h162.97c7.12,0,12.89-5.79,12.89-12.94v-77.15C908.88,206.21,903.11,200.42,895.99,200.42z"/>
	<ellipse class="st2" cx="877.07" cy="211.65" rx="5.4" ry="4.95"/>
	<g>
		<ellipse class="st3" cx="814.5" cy="246.6" rx="36.91" ry="32.57"/>
		<path class="st3" d="M814.5,281.1c-21.52,0-39.02-15.48-39.02-34.5c0-19.02,17.5-34.5,39.02-34.5c21.52,0,39.02,15.48,39.02,34.5
			C853.52,265.62,836.02,281.1,814.5,281.1z M814.5,215.96c-19.19,0-34.8,13.74-34.8,30.64c0,16.89,15.61,30.64,34.8,30.64
			c19.19,0,34.8-13.74,34.8-30.64C849.3,229.7,833.69,215.96,814.5,215.96z"/>
	</g>
	<rect x="742.03" y="191.59" class="st1" width="12.6" height="6.6"/>
	<text transform="matrix(0.7418 0 0 1 787.7937 262.1582)" class="st4 st5">AP</text>
</g>
<text transform="matrix(1.3559 0 0 1 717.5596 609.1338)" class="st6 st7">A</text>
<text transform="matrix(1.803 0 0 1 912.7397 367.0596)" class="st6 st8">P</text>
<text transform="matrix(0.9449 0 0 1 671.8746 813.0866)" class="st6 st9">AUDIO PIXEL</text>
</svg>
